<svg width="80" height="80" viewBox="0 0 80 80" fill="none" xmlns="http://www.w3.org/2000/svg">
<path d="M0 25C0 11.1929 11.1929 0 25 0H55C68.8071 0 80 11.1929 80 25V55C80 68.8071 68.8071 80 55 80H25C11.1929 80 0 68.8071 0 55V25Z" fill="#9C6137"/>
<path d="M40.832 62.088C36.6293 62.088 33.088 61.2027 30.208 59.432C27.328 57.64 25.1413 55.016 23.648 51.56C22.176 48.0827 21.44 43.8053 21.44 38.728C21.44 34.952 21.9627 31.624 23.008 28.744C24.0747 25.8427 25.5467 23.4213 27.424 21.48C29.3013 19.5173 31.488 18.0347 33.984 17.032C36.48 16.0293 39.168 15.528 42.048 15.528C45.2907 15.528 48.0213 16.0293 50.24 17.032C52.4587 18.0347 54.432 19.3573 56.16 21L50.656 26.696C49.312 25.5013 48.0213 24.616 46.784 24.04C45.5467 23.464 44.1387 23.176 42.56 23.176C41.0667 23.176 39.6907 23.4747 38.432 24.072C37.1947 24.648 36.1067 25.5653 35.168 26.824C34.2507 28.0613 33.536 29.672 33.024 31.656C32.512 33.6187 32.256 35.9973 32.256 38.792C32.256 42.6533 32.5653 45.7253 33.184 48.008C33.824 50.2907 34.784 51.9333 36.064 52.936C37.344 53.9173 38.9653 54.408 40.928 54.408C41.9733 54.408 42.9547 54.2907 43.872 54.056C44.7893 53.8 45.6427 53.4693 46.432 53.064V42.92H40.864L39.84 35.56H56.352V57.608C54.1333 58.9733 51.744 60.0613 49.184 60.872C46.6453 61.6827 43.8613 62.088 40.832 62.088Z" fill="white"/>
</svg>
