<svg width="50" height="40" viewBox="0 0 50 40" fill="none" xmlns="http://www.w3.org/2000/svg">
<path d="M30 40V35H37.5C38.2083 35 38.8017 34.76 39.28 34.28C39.76 33.8017 40 33.2083 40 32.5V27.5C40 25.9167 40.4583 24.4792 41.375 23.1875C42.2917 21.8958 43.5 20.9792 45 20.4375V19.5625C43.5 19.0208 42.2917 18.1042 41.375 16.8125C40.4583 15.5208 40 14.0833 40 12.5V7.5C40 6.79167 39.76 6.1975 39.28 5.7175C38.8017 5.23917 38.2083 5 37.5 5H30V0H37.5C39.5833 0 41.3542 0.729167 42.8125 2.1875C44.2708 3.64583 45 5.41667 45 7.5V12.5C45 13.2083 45.24 13.8017 45.72 14.28C46.1983 14.76 46.7917 15 47.5 15H50V25H47.5C46.7917 25 46.1983 25.2392 45.72 25.7175C45.24 26.1975 45 26.7917 45 27.5V32.5C45 34.5833 44.2708 36.3542 42.8125 37.8125C41.3542 39.2708 39.5833 40 37.5 40H30ZM12.5 40C10.4167 40 8.64583 39.2708 7.1875 37.8125C5.72917 36.3542 5 34.5833 5 32.5V27.5C5 26.7917 4.76083 26.1975 4.2825 25.7175C3.8025 25.2392 3.20833 25 2.5 25H0V15H2.5C3.20833 15 3.8025 14.76 4.2825 14.28C4.76083 13.8017 5 13.2083 5 12.5V7.5C5 5.41667 5.72917 3.64583 7.1875 2.1875C8.64583 0.729167 10.4167 0 12.5 0H20V5H12.5C11.7917 5 11.1975 5.23917 10.7175 5.7175C10.2392 6.1975 10 6.79167 10 7.5V12.5C10 14.0833 9.54167 15.5208 8.625 16.8125C7.70833 18.1042 6.5 19.0208 5 19.5625V20.4375C6.5 20.9792 7.70833 21.8958 8.625 23.1875C9.54167 24.4792 10 25.9167 10 27.5V32.5C10 33.2083 10.2392 33.8017 10.7175 34.28C11.1975 34.76 11.7917 35 12.5 35H20V40H12.5Z" fill="url(#paint0_linear_528_51)"/>
<defs>
<linearGradient id="paint0_linear_528_51" x1="25" y1="0" x2="25" y2="40" gradientUnits="userSpaceOnUse">
<stop stop-color="#B629F8"/>
<stop offset="1" stop-color="#800ADD"/>
</linearGradient>
</defs>
</svg>
