<svg width="52" height="52" viewBox="0 0 52 52" fill="none" xmlns="http://www.w3.org/2000/svg">
<path d="M9.59079 44.2016L5.94104 3.25H46.059L42.4044 44.1951L25.9757 48.75L9.59079 44.2016Z" fill="#9C6137"/>
<path d="M26 45.2693L39.2763 41.5886L42.3995 6.59912H26V45.2693Z" fill="#B37A4C"/>
<path d="M26 21.4353H32.6463L33.1045 16.2922H26V11.2693H26.0179H38.5938L38.4735 12.6164L37.2401 26.4582H26V21.4353Z" fill="white"/>
<path d="M26.0309 34.4794L26.0081 34.4859L20.4149 32.9746L20.0574 28.969H17.3388H15.015L15.7186 36.8551L26.0065 39.7119L26.0309 39.7054V34.4794Z" fill="#EBEBEB"/>
<path d="M32.2188 26.2454L31.6143 32.9712L26.0129 34.4825V39.7085L36.3089 36.855L36.3853 36.0067L37.2579 26.2454H32.2188Z" fill="white"/>
<path d="M26.0179 11.2693V14.3893V16.2792V16.2922H13.9019H13.8857L13.7849 15.1628L13.5558 12.6164L13.4355 11.2693H26.0179Z" fill="#EBEBEB"/>
<path d="M26 21.4353V24.5553V26.4452V26.4582H20.4928H20.4766L20.3758 25.3288L20.1483 22.7824L20.0281 21.4353H26Z" fill="#EBEBEB"/>
</svg>
