<svg width="45" height="45" viewBox="0 0 45 45" fill="none" xmlns="http://www.w3.org/2000/svg">
<path d="M43.5425 20.2129L24.1658 0.836894C23.0506 -0.278965 21.2408 -0.278965 20.1239 0.836894L16.1006 4.86088L21.2046 9.96486C22.3911 9.56443 23.7509 9.83303 24.6963 10.7784C25.6466 11.7297 25.9131 13.1012 25.5028 14.2915L30.4218 19.211C31.6119 18.8007 32.9854 19.0658 33.9354 20.0178C35.2643 21.3456 35.2643 23.4983 33.9354 24.8268C32.6065 26.1557 30.4545 26.1557 29.1249 24.8268C28.1258 23.827 27.8786 22.3592 28.3849 21.128L23.7977 16.5408L23.797 28.6138C24.1211 28.7738 24.4266 28.9876 24.6966 29.2565C26.0249 30.5844 26.0249 32.7363 24.6966 34.0669C23.3681 35.3948 21.2148 35.3948 19.8876 34.0669C18.5594 32.7366 18.5594 30.5847 19.8876 29.2565C20.216 28.9285 20.5957 28.6806 21.001 28.5147V16.3299C20.5957 16.164 20.2167 15.9179 19.8876 15.5878C18.8815 14.5823 18.6392 13.1057 19.1553 11.8696L14.1234 6.83771L0.837158 20.1233C-0.279053 21.2402 -0.279053 23.05 0.837158 24.1662L20.2142 43.5422C21.3301 44.6581 23.1392 44.6581 24.2568 43.5422L43.5429 24.2562C44.6587 23.1397 44.6587 21.3288 43.5425 20.2129Z" fill="#9C6137"/>
</svg>
