<svg width="52" height="52" viewBox="0 0 52 52" fill="none" xmlns="http://www.w3.org/2000/svg">
<path d="M9.59071 44.2016L5.93933 3.25H46.0606L42.4043 44.1951L25.9756 48.75L9.59071 44.2016Z" fill="#9C6137"/>
<path d="M26 45.2693L39.2763 41.5886L42.3995 6.59912H26V45.2693Z" fill="#B37A4C"/>
<path d="M26 21.7864H19.3537L18.8955 16.6432H26V11.6204H25.9821H13.4062L13.5265 12.9691L14.7599 26.8092H26V21.7864Z" fill="#EBEBEB"/>
<path d="M26 34.8303L25.9773 34.8368L20.384 33.3272L20.0265 29.3215H17.3079H14.9841L15.6878 37.206L25.9773 40.0628L26 40.0563V34.8303Z" fill="#EBEBEB"/>
<path d="M25.9822 21.7864V26.8093H32.1669L31.5852 33.3239L25.9822 34.8351V40.0611L36.2798 37.206L36.3546 36.3578L37.5343 23.1351L37.6578 21.7864H36.3042H25.9822Z" fill="white"/>
<path d="M25.9822 11.6204V14.7404V16.6319V16.6432H38.0982H38.1144L38.2152 15.5155L38.4443 12.9691L38.5646 11.6204H25.9822Z" fill="white"/>
</svg>
