<svg width="45" height="45" viewBox="0 0 45 45" fill="none" xmlns="http://www.w3.org/2000/svg">
<g clip-path="url(#clip0_616_12)">
<path d="M38.25 0H6.75C3.02208 0 0 3.02208 0 6.75V38.25C0 41.9779 3.02208 45 6.75 45H38.25C41.9779 45 45 41.9779 45 38.25V6.75C45 3.02208 41.9779 0 38.25 0Z" fill="#9C6137"/>
<path d="M28.4766 32.5195C29.3555 34.0137 30.5859 35.0684 32.6074 35.0684C34.3652 35.0684 35.5078 34.1895 35.5078 32.959C35.5078 31.5527 34.3652 31.0254 32.4316 30.1465L31.377 29.707C28.3008 28.3887 26.2793 26.8066 26.2793 23.3789C26.2793 20.2148 28.6523 17.7539 32.4316 17.7539C35.1562 17.7539 37.0898 18.7207 38.4082 21.1816L35.1562 23.291C34.4531 21.9727 33.6621 21.4453 32.4316 21.4453C31.2012 21.4453 30.4102 22.2363 30.4102 23.291C30.4102 24.5215 31.2012 25.0488 33.0469 25.8398L34.1016 26.2793C37.7051 27.8613 39.7266 29.3555 39.7266 32.959C39.7266 36.7383 36.7383 38.8477 32.6953 38.8477C28.7402 38.8477 26.1914 37.002 24.9609 34.541L28.4766 32.5195ZM13.5352 32.8711C14.2383 34.0137 14.7656 35.0684 16.2598 35.0684C17.666 35.0684 18.5449 34.541 18.5449 32.4316V17.8418H22.7637V32.2559C22.7637 36.6504 20.2148 38.584 16.4355 38.584C13.0078 38.584 11.0742 36.8262 10.1074 34.7168L13.5352 32.8711Z" fill="white"/>
</g>
<defs>
<clipPath id="clip0_616_12">
<rect width="45" height="45" fill="white"/>
</clipPath>
</defs>
</svg>
