<svg width="45" height="45" viewBox="0 0 45 45" fill="none" xmlns="http://www.w3.org/2000/svg">
<path d="M22.5 19.9687C24.3057 19.9687 25.7695 18.5049 25.7695 16.6992C25.7695 14.8935 24.3057 13.4297 22.5 13.4297C20.6943 13.4297 19.2305 14.8935 19.2305 16.6992C19.2305 18.5049 20.6943 19.9687 22.5 19.9687Z" fill="#9C6137"/>
<path d="M22.5 28.7227C25.0664 31.2187 27.5977 32.6953 29.6367 32.6953C30.3047 32.6953 30.9375 32.5547 31.4648 32.2383C33.293 31.1836 33.9609 28.5469 33.3281 24.7852C33.2227 24.1172 33.082 23.4492 32.9062 22.7461C33.6094 22.5352 34.2422 22.3242 34.875 22.1133C38.4258 20.7422 40.3945 18.8438 40.3945 16.7695C40.3945 14.6602 38.4258 12.7617 34.875 11.4258C34.2422 11.1797 33.6094 10.9688 32.9062 10.793C33.082 10.0898 33.2227 9.42187 33.3281 8.75391C33.9258 4.92187 33.2578 2.25 31.4297 1.19531C30.9023 0.878906 30.2695 0.738281 29.6016 0.738281C27.5977 0.738281 25.0313 2.21484 22.4648 4.71094C19.9336 2.21484 17.4023 0.738281 15.3633 0.738281C14.6953 0.738281 14.0625 0.878906 13.5352 1.19531C11.707 2.25 11.0391 4.88672 11.6719 8.64844C11.7773 9.31641 11.918 9.98437 12.0938 10.6875C11.3906 10.8984 10.7578 11.1094 10.125 11.3203C6.57422 12.6914 4.60547 14.5898 4.60547 16.6641C4.60547 18.7734 6.57422 20.6719 10.125 22.0078C10.7578 22.2539 11.3906 22.4648 12.0938 22.6406C11.918 23.3438 11.7773 24.0117 11.6719 24.6797C11.0742 28.4414 11.7422 31.1133 13.5352 32.1328C14.0625 32.4492 14.6953 32.5898 15.3633 32.5898C17.4023 32.6602 19.9336 31.1836 22.5 28.7227ZM20.5313 23.9766C21.1641 24.0117 21.832 24.0117 22.5 24.0117C23.168 24.0117 23.8359 24.0117 24.4688 23.9766C23.8359 24.8203 23.168 25.5938 22.5 26.332C21.832 25.5938 21.1641 24.8203 20.5313 23.9766ZM16.1719 20.3555C16.5234 20.9531 16.8398 21.5156 17.2266 22.0781C16.1367 21.9375 15.1172 21.7617 14.1328 21.5508C14.4492 20.6016 14.8008 19.6172 15.2227 18.6328C15.5039 19.1953 15.8203 19.793 16.1719 20.3555ZM14.1328 11.8828C15.1172 11.6719 16.1367 11.4961 17.2266 11.3555C16.875 11.918 16.5234 12.4805 16.1719 13.0781C15.8203 13.6758 15.5039 14.2383 15.2227 14.8359C14.7656 13.8164 14.4141 12.832 14.1328 11.8828ZM16.0664 16.6992C16.5234 15.75 17.0156 14.8008 17.5781 13.8516C18.1055 12.9375 18.7031 12.0234 19.3008 11.1094C20.3555 11.0391 21.4102 11.0039 22.5 11.0039C23.625 11.0039 24.6797 11.0391 25.6992 11.1094C26.332 12.0234 26.8945 12.9375 27.4219 13.8516C27.9844 14.8008 28.4766 15.75 28.9336 16.6992C28.4766 17.6484 27.9844 18.5977 27.4219 19.5469C26.8945 20.4609 26.2969 21.375 25.6992 22.2891C24.6445 22.3594 23.5898 22.3945 22.5 22.3945C21.375 22.3945 20.3203 22.3594 19.3008 22.2891C18.668 21.375 18.1055 20.4609 17.5781 19.5469C17.0156 18.5977 16.5234 17.6484 16.0664 16.6992ZM29.8125 14.8008L28.8633 13.043C28.5117 12.4453 28.1953 11.8828 27.8086 11.3203C28.8984 11.4609 29.918 11.6367 30.9023 11.8477C30.5859 12.832 30.2344 13.8164 29.8125 14.8008ZM29.8125 18.5977C30.2344 19.582 30.5859 20.5664 30.9023 21.5156C29.918 21.7266 28.8984 21.9023 27.8086 22.043C28.1602 21.4805 28.5117 20.918 28.8633 20.3203C29.1797 19.793 29.4961 19.1953 29.8125 18.5977ZM30.6211 30.7969C30.3398 30.9727 29.9883 31.043 29.6016 31.043C27.8789 31.043 25.7344 29.6367 23.625 27.5273C24.6445 26.4375 25.6289 25.207 26.6133 23.8359C28.2656 23.6953 29.8477 23.4492 31.3242 23.0977C31.5 23.7305 31.6055 24.3633 31.7109 24.9961C32.2031 27.9844 31.8164 30.1289 30.6211 30.7969ZM32.4492 12.2695C36.3867 13.3945 38.7422 15.1172 38.7422 16.6992C38.7422 18.0703 37.125 19.4414 34.2773 20.5313C33.7148 20.7422 33.082 20.9531 32.4492 21.1289C31.9922 19.6875 31.4297 18.2109 30.7266 16.6992C31.4297 15.1875 32.0273 13.7109 32.4492 12.2695ZM29.6367 2.35547C30.0234 2.35547 30.3398 2.42578 30.6562 2.60156C31.8164 3.26953 32.2383 5.37891 31.7461 8.40234C31.6406 9 31.5 9.63281 31.3594 10.3008C29.8828 9.98437 28.3008 9.73828 26.6484 9.5625C25.6992 8.19141 24.6797 6.96094 23.6602 5.87109C25.7695 3.79688 27.9141 2.35547 29.6367 2.35547ZM24.4688 9.42187C23.8359 9.38672 23.168 9.38672 22.5 9.38672C21.832 9.38672 21.1641 9.38672 20.5313 9.42187C21.1641 8.57812 21.832 7.80469 22.5 7.06641C23.168 7.80469 23.8359 8.61328 24.4688 9.42187ZM14.3789 2.60156C14.6602 2.42578 15.0117 2.35547 15.3984 2.35547C17.1211 2.35547 19.2656 3.76172 21.375 5.87109C20.3555 6.96094 19.3711 8.19141 18.3867 9.5625C16.7344 9.70313 15.1523 9.94922 13.6758 10.3008C13.5 9.66797 13.3945 9.03516 13.2891 8.40234C12.7969 5.41406 13.1836 3.30469 14.3789 2.60156ZM12.5508 21.1289C8.61328 20.0039 6.25781 18.2813 6.25781 16.6992C6.25781 15.3281 7.875 13.957 10.7227 12.8672C11.2852 12.6562 11.918 12.4453 12.5508 12.2695C13.0078 13.7109 13.5703 15.1875 14.2734 16.6992C13.5703 18.2109 12.9727 19.7227 12.5508 21.1289ZM13.2891 24.9961C13.3945 24.3984 13.5352 23.7656 13.6758 23.0977C15.1523 23.4141 16.7344 23.6602 18.3867 23.8359C19.3359 25.207 20.3555 26.4375 21.375 27.5273C19.2656 29.6016 17.1211 31.043 15.3984 31.043C15.0117 31.043 14.6953 30.9727 14.3789 30.7969C13.1836 30.1289 12.7969 27.9844 13.2891 24.9961ZM11.8125 39.4805C12.5859 38.5313 12.6211 37.4766 12.1992 36.4219C11.7773 35.3672 10.8984 34.875 9.80859 34.8398C8.50781 34.8047 7.17188 34.8398 5.87109 34.8398H5.625V43.9453H6.67969V40.5H8.33203C8.54297 40.5 8.71875 40.5703 8.82422 40.7461L10.9336 44.0156C10.9688 44.0859 11.0742 44.1914 11.1445 44.1914H12.5156C11.6719 42.8906 10.8633 41.6602 10.0195 40.3945C10.7578 40.2891 11.3906 40.043 11.8125 39.4805ZM6.67969 39.4102V35.9297H7.06641C7.875 35.9297 8.71875 35.8945 9.52734 35.9648C10.4766 36 11.1445 36.7383 11.1445 37.6875C11.1445 38.6367 10.3711 39.375 9.42187 39.4102C8.57812 39.4453 7.73437 39.4102 6.67969 39.4102ZM20.2852 39.8672C19.7227 37.4063 17.4727 36.7734 15.75 37.5469C14.4141 38.1445 13.8164 39.3047 13.7813 40.7461C13.7461 41.8359 14.0625 42.8203 14.9063 43.5586C15.8555 44.4023 17.0156 44.5078 18.2109 44.2969C18.8789 44.1563 19.4766 43.8398 19.9336 43.3477C19.7578 43.1016 19.582 42.8555 19.4062 42.6445C18.4219 43.4883 17.332 43.7695 16.1367 43.207C15.3633 42.8203 14.9766 41.8711 14.9063 41.168H20.3555V40.7109C20.3906 40.3945 20.3555 40.1133 20.2852 39.8672ZM14.9766 40.4297C14.8711 39.375 15.9258 38.25 17.0859 38.25C18.4219 38.2148 19.2656 39.0234 19.3008 40.4297H14.9766ZM25.7695 37.3711C25.2422 37.2656 24.6797 37.2305 24.1523 37.2656C23.3086 37.3359 22.5703 37.7227 21.9727 38.3555C22.1484 38.6016 22.2891 38.8477 22.5 39.1289C22.5703 39.0586 22.6406 38.9883 22.7109 38.9531C23.2734 38.4258 23.9414 38.1445 24.75 38.2148C25.3828 38.25 25.9805 38.4609 26.1563 39.0937C26.2969 39.5859 26.2617 40.1133 26.2969 40.6406C26.1914 40.6406 26.1563 40.6055 26.1211 40.5703C25.2773 39.8672 24.3281 39.7266 23.3086 39.9727C22.3594 40.2187 21.7617 40.957 21.6914 41.9062C21.6211 42.9961 22.1133 43.8047 23.0625 44.1914C23.6602 44.4375 24.3281 44.4375 24.9609 44.2969C25.4531 44.1914 25.6641 43.9102 26.3672 43.5234V43.9805H27.3516C27.3516 42.5742 27.3867 40.8516 27.3516 39.2344C27.3516 38.2148 26.7539 37.582 25.7695 37.3711ZM26.2617 41.8008C26.2266 41.9063 26.2617 42.0117 26.2617 42.1172C26.2617 42.8555 26.0859 43.1016 25.3828 43.3828C24.8906 43.5586 24.3633 43.6289 23.8359 43.4531C23.2383 43.2773 22.8164 42.75 22.8164 42.1523C22.7813 41.5547 23.168 40.957 23.7656 40.7813C24.5742 40.5 25.3125 40.6758 25.9805 41.168C26.1914 41.3438 26.332 41.5195 26.2617 41.8008ZM31.7461 38.3203C32.6602 38.0391 33.5039 38.2148 34.1367 38.9883L34.2422 39.0586C34.4883 38.8477 34.6992 38.6367 34.9805 38.3906C34.875 38.2852 34.8398 38.2148 34.7695 38.1094C33.75 37.0195 31.7461 36.8789 30.5156 37.7578C28.793 39.0234 28.8281 41.4844 29.6719 42.7852C30.4805 44.0156 31.6406 44.4375 33.0117 44.2617C33.8203 44.1563 34.4883 43.7695 35.0156 43.1016C34.7695 42.8906 34.5234 42.6797 34.2773 42.4336C34.207 42.5039 34.1719 42.5391 34.1367 42.6094C33.1875 43.6641 31.6055 43.5586 30.7617 42.4336C30.2695 41.7656 30.1641 40.9922 30.3047 40.2188C30.375 39.3398 30.832 38.6367 31.7461 38.3203ZM39.0586 43.1016C38.9883 43.1367 38.9531 43.1719 38.9531 43.1719C38.6719 43.3828 38.3906 43.418 38.0742 43.3125C37.7578 43.1719 37.7227 42.8906 37.6875 42.6094V38.6016C37.6875 38.5313 37.6875 38.6719 37.7227 38.3203H39.0586V37.2656H37.6523V35.5078H36.5977V37.4063H35.6836C35.6133 37.4063 35.5078 37.4766 35.5078 37.5469C35.4727 37.793 35.5078 37.9688 35.5078 38.3203H36.6328V42.8203C36.6328 43.3828 36.7734 43.875 37.2656 44.1562C37.793 44.4727 38.8125 44.4023 39.2695 44.0156C39.3398 43.9805 39.375 43.8398 39.375 43.8047C39.2695 43.5937 39.1641 43.3477 39.0586 43.1016Z" fill="#9C6137"/>
</svg>
