<svg width="45" height="45" viewBox="0 0 45 45" fill="none" xmlns="http://www.w3.org/2000/svg">
<path d="M36.7172 24.7107C35.4807 24.7123 34.2607 24.9951 33.1495 25.5376C32.8016 24.9602 32.533 24.3387 32.3508 23.6897C32.2461 23.181 32.2219 22.6591 32.2791 22.1429C32.3993 21.5748 32.5552 21.015 32.7459 20.4666C32.7389 20.3949 32.6601 20.056 31.8684 20.0447C31.0767 20.0335 30.3947 20.1952 30.3216 20.4047C30.1841 20.7875 30.0736 21.1794 29.9911 21.5776C29.3358 23.1941 28.5293 24.745 27.5822 26.2097C27.0515 25.3398 26.8333 24.3151 26.9634 23.3044C27.0836 22.7364 27.2396 22.1765 27.4303 21.6282C27.4233 21.5565 27.3445 21.2176 26.5528 21.2063C25.7611 21.1951 25.0791 21.3568 25.0059 21.5663C24.9328 21.7758 24.84 22.2694 24.6755 22.7391C24.5109 23.2088 22.59 27.5007 22.0866 28.6074C21.8278 29.1699 21.6042 29.6283 21.4467 29.9377C21.4392 29.9578 21.4298 29.9771 21.4186 29.9954C21.278 30.2611 21.2034 30.406 21.2034 30.406V30.413C21.0951 30.6071 20.9798 30.7871 20.9222 30.7871C20.8216 30.3853 20.8265 29.9644 20.9362 29.5651C21.2175 28.0758 21.9066 25.7611 21.8995 25.681C21.8995 25.6374 22.0289 25.2352 21.4537 25.0271C21.3203 24.9636 21.1706 24.943 21.025 24.9682C20.8794 24.9934 20.7452 25.0631 20.6409 25.1677C20.5903 25.1677 20.5551 25.2901 20.5551 25.2901C20.5551 25.2901 21.1809 22.6871 19.3612 22.6871C18.6526 22.8296 17.9797 23.1124 17.3819 23.5189C16.7842 23.9253 16.2738 24.4472 15.8808 25.0538C15.3914 25.3196 14.3494 25.8877 13.2342 26.4994C12.8123 26.7371 12.3708 26.9747 11.9616 27.2026C11.9334 27.1744 11.9039 27.1379 11.8758 27.1097C9.66093 24.7501 5.58983 23.0851 5.76562 19.928C5.8303 18.7777 6.22546 15.7571 13.583 12.0882C19.6383 9.10412 24.4575 9.93099 25.2914 11.7647C26.4853 14.3832 22.7095 19.2446 16.4531 19.9491C15.761 20.0895 15.0461 20.0726 14.3614 19.8995C13.6767 19.7265 13.0396 19.4017 12.4973 18.9493C12.1669 18.5893 12.1162 18.5682 11.9939 18.6399C11.7928 18.7482 11.9222 19.0716 11.9939 19.2586C12.2326 19.6906 12.5554 20.0703 12.9433 20.3753C13.3312 20.6804 13.7763 20.9046 14.2523 21.0347C16.7136 21.5666 19.2797 21.3123 21.5887 20.3077C25.3856 18.841 28.3387 14.7629 27.4725 11.3471C26.602 7.88068 20.8491 6.7374 15.4041 8.67521C11.9935 9.82281 8.84225 11.6304 6.12983 13.9951C3.1303 16.8005 2.6564 19.2376 2.85046 20.2599C3.55358 23.8852 8.54718 26.2435 10.5455 27.9943C10.4442 28.0519 10.3514 28.1026 10.2726 28.1447C9.2728 28.6411 5.46187 30.6338 4.50702 32.7404C3.42843 35.131 4.67999 36.8396 5.50687 37.0702C6.75281 37.3685 8.06079 37.2702 9.24821 36.7892C10.4356 36.3082 11.4432 35.4684 12.1303 34.3871C12.7154 33.4902 13.075 32.4652 13.1786 31.3993C13.2822 30.3335 13.1266 29.2584 12.7251 28.2657C12.7184 28.2496 12.7089 28.2349 12.697 28.2221L13.4803 27.7622C13.9908 27.4599 14.4942 27.1801 14.9259 26.9494C14.6332 27.7938 14.4613 28.6754 14.4155 29.5679C14.3161 30.9358 14.7347 32.2911 15.5883 33.3647C15.7182 33.4765 15.8689 33.5615 16.0319 33.6146C16.1948 33.6677 16.3667 33.6879 16.5375 33.6741C17.3812 33.6741 17.768 32.971 18.1912 32.1357C18.7087 31.1147 19.1756 29.9279 19.1756 29.9279C19.1756 29.9279 18.5934 33.1355 20.1755 33.1355C20.7506 33.1355 21.3328 32.3874 21.593 32.0105V32.0176C21.593 32.0176 21.607 31.9965 21.6366 31.9458L21.7294 31.7954V31.7813C21.96 31.3791 22.4775 30.4651 23.2467 28.9477C24.2395 26.9916 25.1958 24.5461 25.1958 24.5461C25.288 25.0836 25.4153 25.6144 25.5769 26.1352C25.8085 26.7665 26.0824 27.3815 26.3967 27.976C26.1661 28.2994 26.0226 28.4794 26.0226 28.4794L26.0297 28.4865C25.8426 28.7311 25.6416 28.9969 25.418 29.2557C24.7527 29.9871 24.1355 30.7607 23.5701 31.5718C23.4861 31.708 23.4573 31.8711 23.4894 32.0279C23.5216 32.1847 23.6123 32.3233 23.7431 32.4155C24.0391 32.5696 24.3766 32.6252 24.7064 32.5744C25.2034 32.5464 25.6922 32.4346 26.152 32.244C26.5964 32.0876 27.0157 31.8673 27.3966 31.5901C27.7892 31.318 28.1053 30.9495 28.3144 30.52C28.5235 30.0905 28.6185 29.6144 28.5905 29.1376C28.5462 28.5369 28.3928 27.9493 28.1376 27.4036C28.2094 27.3024 28.2783 27.2026 28.3458 27.1013C29.1453 25.9079 29.8659 24.6636 30.503 23.3761C30.5952 23.9136 30.7225 24.4444 30.8841 24.9652C31.0751 25.5108 31.3102 26.0399 31.5872 26.5472C30.6674 27.2549 29.9429 28.185 29.482 29.2501C29.0292 30.5593 29.3808 31.1485 30.0445 31.2849C30.4077 31.3099 30.7709 31.2356 31.095 31.0697C31.5715 30.9131 32.0205 30.6825 32.4253 30.3863C32.8522 30.1344 33.2097 29.7803 33.4657 29.3558C33.7218 28.9314 33.8683 28.45 33.892 27.9549C33.8601 27.4607 33.7485 26.9749 33.5616 26.5163C34.7753 26.0421 36.0913 25.891 37.3809 26.0776C40.8037 26.4797 41.4801 28.6158 41.3508 29.5158C41.2901 29.8349 41.1618 30.1373 40.9746 30.4026C40.7873 30.668 40.5454 30.8902 40.2651 31.0543C40.0275 31.2047 39.9487 31.2554 39.9698 31.3636C39.998 31.5226 40.1105 31.5141 40.3144 31.486C40.8302 31.3257 41.2854 31.0127 41.6198 30.5884C41.9542 30.1642 42.1521 29.6485 42.1875 29.1094C42.2958 27.0001 40.282 24.6868 36.7214 24.7079L36.7172 24.7107ZM10.3078 33.6094C9.17155 34.8469 7.58952 35.3138 6.90608 34.9186C6.17202 34.4968 6.4603 32.6686 7.8553 31.358C8.68281 30.6131 9.57722 29.9461 10.5272 29.3654C10.6931 29.2641 10.9378 29.1207 11.2303 28.9435L11.3091 28.8999L11.482 28.7916C11.7312 29.6266 11.7538 30.5129 11.5475 31.3596C11.3411 32.2062 10.9133 32.9827 10.3078 33.6094ZM18.578 27.9844C18.1828 28.9477 17.3559 31.4157 16.8525 31.2779C16.4208 31.1626 16.1494 29.2922 16.7667 27.4444C17.0784 26.5549 17.5324 25.7219 18.1111 24.9779C18.7298 24.2874 19.4133 24.0568 19.5778 24.338C19.4277 25.5964 19.0907 26.8254 18.578 27.9844ZM25.4025 31.2497C25.2366 31.3355 25.0791 31.3904 25.0073 31.351C24.9567 31.3229 25.0791 31.2104 25.0791 31.2104C25.0791 31.2104 25.9355 30.2893 26.273 29.873C26.467 29.6283 26.6948 29.3415 26.9423 29.0166V29.1094C26.9423 30.2091 25.8778 30.9502 25.4039 31.2526L25.4025 31.2497ZM30.6675 30.0488C30.5451 29.963 30.5662 29.6747 30.9769 28.7761C31.2624 28.199 31.6613 27.6854 32.1497 27.2658C32.2245 27.4787 32.2635 27.7025 32.265 27.9282C32.2705 28.4085 32.117 28.8771 31.8282 29.2609C31.5395 29.6448 31.1319 29.9223 30.6689 30.0502L30.6675 30.0488Z" fill="#9C6137"/>
</svg>
