<svg width="45" height="45" viewBox="0 0 45 45" fill="none" xmlns="http://www.w3.org/2000/svg">
<path d="M4 17H42V42H4V17Z" fill="white"/>
<path d="M2.10938 0C0.94125 0 0 0.94125 0 2.10938V42.8906C0 44.0588 0.94125 45 2.10938 45H42.8906C44.0588 45 45 44.0588 45 42.8906V2.10938C45 0.94125 44.0588 0 42.8906 0H2.10938ZM34.665 18.2812C35.8125 18.2812 36.8288 18.3506 37.7156 18.4894C38.5521 18.6147 39.373 18.8284 40.1644 19.1269V23.7356C39.7845 23.4729 39.3809 23.2463 38.9587 23.0588C38.5234 22.8629 38.0741 22.6999 37.6144 22.5713C36.7436 22.3286 35.8445 22.2025 34.9406 22.1963C34.3781 22.1963 33.8662 22.2488 33.405 22.3575C32.9939 22.4454 32.5995 22.5986 32.2369 22.8113C31.9181 23.0063 31.6744 23.2406 31.5 23.5125C31.3246 23.7865 31.2334 24.1059 31.2375 24.4312C31.2375 24.7987 31.3369 25.1306 31.53 25.4231C31.725 25.7156 32.0025 25.9931 32.3606 26.2556C32.7188 26.5181 33.1538 26.7731 33.6656 27.0244C34.1775 27.2775 34.7569 27.5381 35.4019 27.8044C36.2831 28.1738 37.0744 28.5675 37.7756 28.9819C38.4769 29.3981 39.0788 29.8687 39.5813 30.3937C40.0838 30.9169 40.4663 31.515 40.7325 32.1881C40.9988 32.8613 41.1338 33.6431 41.1338 34.5375C41.1338 35.7694 40.8994 36.8063 40.4344 37.6425C39.9801 38.4673 39.328 39.1663 38.5369 39.6769C37.6841 40.2176 36.7389 40.5964 35.7487 40.7944C34.6875 41.0194 33.5681 41.1319 32.3925 41.1319C31.2354 41.1369 30.0804 41.034 28.9425 40.8244C27.958 40.6541 27.0032 40.3428 26.1075 39.9V34.9688C27.8021 36.4109 29.9518 37.2078 32.1769 37.2188C32.8012 37.2188 33.3469 37.1625 33.8119 37.05C34.2788 36.9375 34.6669 36.78 34.98 36.5812C35.2912 36.3787 35.5237 36.1425 35.6794 35.8687C35.8514 35.55 35.9296 35.1891 35.9051 34.8278C35.8805 34.4664 35.7542 34.1194 35.5406 33.8269C35.262 33.4582 34.9213 33.141 34.5337 32.8894C34.0531 32.5708 33.547 32.2923 33.0206 32.0569C32.3967 31.7719 31.7672 31.4994 31.1325 31.2394C29.4112 30.5212 28.1287 29.6419 27.2831 28.605C26.4394 27.5681 26.0156 26.3137 26.0156 24.8456C26.0156 23.6944 26.2463 22.7062 26.7075 21.8794C27.1688 21.0525 27.795 20.3719 28.59 19.8375C29.4309 19.2828 30.3644 18.8833 31.3463 18.6581C32.4337 18.4017 33.5477 18.2752 34.665 18.2812ZM6.32812 18.6337H24.2587V22.695H17.8237V40.7812H12.7294V22.695H6.32812V18.6337Z" fill="#9C6137"/>
</svg>
