<svg width="377" height="51" viewBox="0 0 377 51" fill="none" xmlns="http://www.w3.org/2000/svg">
<g filter="url(#filter0_d_528_46)">
<path d="M20.52 4.92002C24.808 4.92002 28.504 6.28002 31.608 9.00002L27.624 13.176C26.44 12.28 25.336 11.64 24.312 11.256C23.32 10.84 22.168 10.632 20.856 10.632C18.392 10.632 16.424 11.608 14.952 13.56C13.48 15.48 12.744 18.408 12.744 22.344C12.744 26.6 13.304 29.624 14.424 31.416C15.544 33.176 17.288 34.056 19.656 34.056C21.32 34.056 22.824 33.688 24.168 32.952V25.416H19.848L19.08 19.848H31.8V36.312C30.072 37.432 28.168 38.296 26.088 38.904C24.008 39.512 21.928 39.816 19.848 39.816C14.792 39.816 10.984 38.344 8.42398 35.4C5.86398 32.424 4.58398 28.072 4.58398 22.344C4.58398 18.696 5.27198 15.56 6.64798 12.936C8.05598 10.312 9.95998 8.32802 12.36 6.98402C14.792 5.60802 17.512 4.92002 20.52 4.92002Z" fill="#F5F5F5"/>
<path d="M57.1695 31.608C57.1695 32.568 57.2975 33.272 57.5535 33.72C57.8415 34.168 58.2895 34.504 58.8975 34.728L57.3135 39.672C55.7455 39.544 54.4655 39.208 53.4735 38.664C52.4815 38.088 51.7135 37.192 51.1695 35.976C49.5055 38.536 46.9455 39.816 43.4895 39.816C40.9615 39.816 38.9455 39.08 37.4415 37.608C35.9375 36.136 35.1855 34.216 35.1855 31.848C35.1855 29.064 36.2095 26.936 38.2575 25.464C40.3055 23.992 43.2655 23.256 47.1375 23.256H49.7295V22.152C49.7295 20.648 49.4095 19.624 48.7695 19.08C48.1295 18.504 47.0095 18.216 45.4095 18.216C44.5775 18.216 43.5695 18.344 42.3855 18.6C41.2015 18.824 39.9855 19.144 38.7375 19.56L37.0095 14.568C38.6095 13.96 40.2415 13.496 41.9055 13.176C43.6015 12.856 45.1695 12.696 46.6095 12.696C50.2575 12.696 52.9295 13.448 54.6255 14.952C56.3215 16.456 57.1695 18.712 57.1695 21.72V31.608ZM45.6975 34.392C47.4255 34.392 48.7695 33.576 49.7295 31.944V27.432H47.8575C46.1295 27.432 44.8335 27.736 43.9695 28.344C43.1375 28.952 42.7215 29.896 42.7215 31.176C42.7215 32.2 42.9775 33 43.4895 33.576C44.0335 34.12 44.7695 34.392 45.6975 34.392Z" fill="#F5F5F5"/>
<path d="M77.6584 12.696C80.6984 12.696 83.0344 13.896 84.6664 16.296C86.2984 18.664 87.1144 21.992 87.1144 26.28C87.1144 28.904 86.6984 31.24 85.8664 33.288C85.0664 35.336 83.8984 36.936 82.3624 38.088C80.8584 39.24 79.0664 39.816 76.9864 39.816C75.6104 39.816 74.3464 39.528 73.1944 38.952C72.0744 38.376 71.1144 37.576 70.3144 36.552L69.9304 39H63.2104V3.38402L70.7944 2.56802V16.104C71.5624 15.048 72.5384 14.216 73.7224 13.608C74.9384 13 76.2504 12.696 77.6584 12.696ZM74.7784 34.296C77.7544 34.296 79.2424 31.624 79.2424 26.28C79.2424 23.24 78.8904 21.144 78.1864 19.992C77.4824 18.84 76.4584 18.264 75.1144 18.264C73.4184 18.264 71.9784 19.256 70.7944 21.24V31.848C71.2744 32.616 71.8504 33.224 72.5224 33.672C73.2264 34.088 73.9784 34.296 74.7784 34.296Z" fill="#F5F5F5"/>
<path d="M105.675 12.792C106.603 12.792 107.451 12.904 108.219 13.128L107.019 20.472C106.059 20.248 105.291 20.136 104.715 20.136C103.211 20.136 102.059 20.664 101.259 21.72C100.491 22.744 99.883 24.296 99.435 26.376V39H91.851V13.512H98.475L99.099 18.456C99.675 16.696 100.539 15.32 101.691 14.328C102.875 13.304 104.203 12.792 105.675 12.792Z" fill="#F5F5F5"/>
<path d="M118.701 13.512V39H111.117V13.512H118.701ZM114.861 0.0720215C116.173 0.0720215 117.245 0.488022 118.077 1.32002C118.941 2.12002 119.373 3.14402 119.373 4.39202C119.373 5.64002 118.941 6.68002 118.077 7.51202C117.245 8.31202 116.173 8.71202 114.861 8.71202C113.549 8.71202 112.477 8.31202 111.645 7.51202C110.813 6.68002 110.397 5.64002 110.397 4.39202C110.397 3.14402 110.813 2.12002 111.645 1.32002C112.477 0.488022 113.549 0.0720215 114.861 0.0720215Z" fill="#F5F5F5"/>
<path d="M146.887 25.752C146.887 26.808 146.839 27.72 146.743 28.488H130.951C131.207 30.632 131.815 32.136 132.775 33C133.735 33.864 135.063 34.296 136.759 34.296C137.783 34.296 138.775 34.12 139.735 33.768C140.695 33.384 141.735 32.808 142.855 32.04L145.975 36.264C142.999 38.632 139.687 39.816 136.039 39.816C131.911 39.816 128.743 38.6 126.535 36.168C124.327 33.736 123.223 30.472 123.223 26.376C123.223 23.784 123.687 21.464 124.615 19.416C125.543 17.336 126.903 15.704 128.695 14.52C130.487 13.304 132.631 12.696 135.127 12.696C138.807 12.696 141.687 13.848 143.767 16.152C145.847 18.456 146.887 21.656 146.887 25.752ZM139.447 23.592C139.383 19.688 138.007 17.736 135.319 17.736C134.007 17.736 132.983 18.216 132.247 19.176C131.543 20.136 131.111 21.72 130.951 23.928H139.447V23.592Z" fill="#F5F5F5"/>
<path d="M157.916 39.816C155.708 39.816 153.98 39.192 152.732 37.944C151.516 36.664 150.908 34.856 150.908 32.52V3.38402L158.492 2.56802V32.232C158.492 33.288 158.924 33.816 159.788 33.816C160.236 33.816 160.652 33.736 161.036 33.576L162.524 38.952C161.148 39.528 159.612 39.816 157.916 39.816Z" fill="#F5F5F5"/>
<path d="M194.788 39V24.744H184.804V39H176.932V5.73602H184.804V18.6H194.788V5.73602H202.66V39H194.788Z" fill="#F5F5F5"/>
<path d="M230.981 25.752C230.981 26.808 230.933 27.72 230.837 28.488H215.045C215.301 30.632 215.909 32.136 216.869 33C217.829 33.864 219.157 34.296 220.853 34.296C221.877 34.296 222.869 34.12 223.829 33.768C224.789 33.384 225.829 32.808 226.949 32.04L230.069 36.264C227.093 38.632 223.781 39.816 220.133 39.816C216.005 39.816 212.837 38.6 210.629 36.168C208.421 33.736 207.317 30.472 207.317 26.376C207.317 23.784 207.781 21.464 208.709 19.416C209.637 17.336 210.997 15.704 212.789 14.52C214.581 13.304 216.725 12.696 219.221 12.696C222.901 12.696 225.781 13.848 227.861 16.152C229.941 18.456 230.981 21.656 230.981 25.752ZM223.541 23.592C223.477 19.688 222.101 17.736 219.413 17.736C218.101 17.736 217.077 18.216 216.341 19.176C215.637 20.136 215.205 21.72 215.045 23.928H223.541V23.592Z" fill="#F5F5F5"/>
<path d="M250.17 12.696C252.378 12.696 254.106 13.368 255.354 14.712C256.602 16.056 257.226 17.944 257.226 20.376V39H249.642V21.672C249.642 20.392 249.434 19.512 249.018 19.032C248.634 18.52 248.042 18.264 247.242 18.264C245.706 18.264 244.234 19.368 242.826 21.576V39H235.242V13.512H241.866L242.394 16.536C243.482 15.256 244.65 14.296 245.898 13.656C247.178 13.016 248.602 12.696 250.17 12.696Z" fill="#F5F5F5"/>
<path d="M276.769 12.792C277.697 12.792 278.545 12.904 279.313 13.128L278.113 20.472C277.153 20.248 276.385 20.136 275.809 20.136C274.305 20.136 273.153 20.664 272.353 21.72C271.585 22.744 270.977 24.296 270.529 26.376V39H262.945V13.512H269.569L270.193 18.456C270.769 16.696 271.633 15.32 272.785 14.328C273.969 13.304 275.297 12.792 276.769 12.792Z" fill="#F5F5F5"/>
<path d="M289.794 13.512V39H282.21V13.512H289.794ZM285.954 0.0720215C287.266 0.0720215 288.338 0.488022 289.17 1.32002C290.034 2.12002 290.466 3.14402 290.466 4.39202C290.466 5.64002 290.034 6.68002 289.17 7.51202C288.338 8.31202 287.266 8.71202 285.954 8.71202C284.642 8.71202 283.57 8.31202 282.738 7.51202C281.906 6.68002 281.49 5.64002 281.49 4.39202C281.49 3.14402 281.906 2.12002 282.738 1.32002C283.57 0.488022 284.642 0.0720215 285.954 0.0720215Z" fill="#F5F5F5"/>
<path d="M303.341 2.56802V39H295.757V3.38402L303.341 2.56802ZM319.085 13.512L311.357 24.696L319.709 39H311.165L303.581 25.08L311.357 13.512H319.085Z" fill="#F5F5F5"/>
<path d="M353.8 42.4V37.6H361C361.68 37.6 362.25 37.3696 362.709 36.9088C363.17 36.4496 363.4 35.88 363.4 35.2V30.4C363.4 28.88 363.84 27.5 364.72 26.26C365.6 25.02 366.76 24.14 368.2 23.62V22.78C366.76 22.26 365.6 21.38 364.72 20.14C363.84 18.9 363.4 17.52 363.4 16V11.2C363.4 10.52 363.17 9.94962 362.709 9.48882C362.25 9.02962 361.68 8.80002 361 8.80002H353.8V4.00002H361C363 4.00002 364.7 4.70002 366.1 6.10002C367.5 7.50002 368.2 9.20002 368.2 11.2V16C368.2 16.68 368.43 17.2496 368.891 17.7088C369.35 18.1696 369.92 18.4 370.6 18.4H373V28H370.6C369.92 28 369.35 28.2296 368.891 28.6888C368.43 29.1496 368.2 29.72 368.2 30.4V35.2C368.2 37.2 367.5 38.9 366.1 40.3C364.7 41.7 363 42.4 361 42.4H353.8ZM337 42.4C335 42.4 333.3 41.7 331.9 40.3C330.5 38.9 329.8 37.2 329.8 35.2V30.4C329.8 29.72 329.57 29.1496 329.111 28.6888C328.65 28.2296 328.08 28 327.4 28H325V18.4H327.4C328.08 18.4 328.65 18.1696 329.111 17.7088C329.57 17.2496 329.8 16.68 329.8 16V11.2C329.8 9.20002 330.5 7.50002 331.9 6.10002C333.3 4.70002 335 4.00002 337 4.00002H344.2V8.80002H337C336.32 8.80002 335.75 9.02962 335.289 9.48882C334.83 9.94962 334.6 10.52 334.6 11.2V16C334.6 17.52 334.16 18.9 333.28 20.14C332.4 21.38 331.24 22.26 329.8 22.78V23.62C331.24 24.14 332.4 25.02 333.28 26.26C334.16 27.5 334.6 28.88 334.6 30.4V35.2C334.6 35.88 334.83 36.4496 335.289 36.9088C335.75 37.3696 336.32 37.6 337 37.6H344.2V42.4H337Z" fill="url(#paint0_linear_528_46)"/>
</g>
<defs>
<filter id="filter0_d_528_46" x="0.583984" y="0.0720215" width="376.416" height="50.328" filterUnits="userSpaceOnUse" color-interpolation-filters="sRGB">
<feFlood flood-opacity="0" result="BackgroundImageFix"/>
<feColorMatrix in="SourceAlpha" type="matrix" values="0 0 0 0 0 0 0 0 0 0 0 0 0 0 0 0 0 0 127 0" result="hardAlpha"/>
<feOffset dy="4"/>
<feGaussianBlur stdDeviation="2"/>
<feComposite in2="hardAlpha" operator="out"/>
<feColorMatrix type="matrix" values="0 0 0 0 0 0 0 0 0 0 0 0 0 0 0 0 0 0 0.25 0"/>
<feBlend mode="normal" in2="BackgroundImageFix" result="effect1_dropShadow_528_46"/>
<feBlend mode="normal" in="SourceGraphic" in2="effect1_dropShadow_528_46" result="shape"/>
</filter>
<linearGradient id="paint0_linear_528_46" x1="188.792" y1="0.0720215" x2="188.792" y2="42.4" gradientUnits="userSpaceOnUse">
<stop stop-color="#B629F8"/>
<stop offset="1" stop-color="#800ADD"/>
</linearGradient>
</defs>
</svg>
