<svg width="393" height="60" viewBox="0 0 393 60" fill="none" xmlns="http://www.w3.org/2000/svg">
<path d="M19.44 15.344C21.616 15.344 23.392 15.648 24.768 16.256C26.144 16.864 27.376 17.6 28.464 18.464C28.848 18.752 29.168 18.896 29.424 18.896C30.032 18.896 30.432 17.936 30.624 16.016H31.728C31.664 17.264 31.616 18.784 31.584 20.576C31.552 22.336 31.536 24.688 31.536 27.632H30.432C30.208 25.712 29.856 24.048 29.376 22.64C28.928 21.2 28.08 19.968 26.832 18.944C26.064 18.208 25.104 17.632 23.952 17.216C22.832 16.8 21.696 16.592 20.544 16.592C18.784 16.592 17.28 17.056 16.032 17.984C14.784 18.88 13.76 20.112 12.96 21.68C12.16 23.248 11.568 25.024 11.184 27.008C10.8 28.96 10.608 30.992 10.608 33.104C10.608 38.864 11.392 43.072 12.96 45.728C14.56 48.384 16.848 49.712 19.824 49.712C20.592 49.712 21.264 49.616 21.84 49.424C22.416 49.232 22.88 49.008 23.232 48.752C23.68 48.432 23.984 48.096 24.144 47.744C24.304 47.36 24.384 46.864 24.384 46.256V41.552C24.384 40.08 24.256 38.992 24 38.288C23.776 37.552 23.312 37.056 22.608 36.8C21.904 36.544 20.88 36.4 19.536 36.368V35.408C20.208 35.44 21.008 35.472 21.936 35.504C22.896 35.504 23.888 35.52 24.912 35.552C25.936 35.552 26.88 35.552 27.744 35.552C29.088 35.552 30.32 35.536 31.44 35.504C32.56 35.472 33.472 35.44 34.176 35.408V36.368C33.568 36.4 33.104 36.512 32.784 36.704C32.496 36.896 32.288 37.28 32.16 37.856C32.064 38.432 32.016 39.312 32.016 40.496V50H31.056C31.024 49.456 30.896 48.864 30.672 48.224C30.48 47.584 30.144 47.264 29.664 47.264C29.44 47.264 29.136 47.328 28.752 47.456C28.4 47.552 27.84 47.824 27.072 48.272C25.888 48.944 24.64 49.52 23.328 50C22.016 50.448 20.64 50.672 19.2 50.672C15.488 50.672 12.352 49.984 9.792 48.608C7.232 47.232 5.296 45.264 3.984 42.704C2.704 40.112 2.064 37.008 2.064 33.392C2.064 29.744 2.8 26.576 4.272 23.888C5.776 21.2 7.824 19.104 10.416 17.6C13.04 16.096 16.048 15.344 19.44 15.344ZM42.9791 50.336C41.5391 50.336 40.3391 50.064 39.3791 49.52C38.4191 48.976 37.7151 48.256 37.2671 47.36C36.8191 46.432 36.5951 45.424 36.5951 44.336C36.5951 42.96 36.8991 41.84 37.5071 40.976C38.1471 40.112 38.9631 39.408 39.9551 38.864C40.9471 38.32 41.9871 37.872 43.0751 37.52C44.1951 37.168 45.2511 36.832 46.2431 36.512C47.2671 36.16 48.0831 35.76 48.6911 35.312C49.3311 34.832 49.6511 34.224 49.6511 33.488V29.744C49.6511 28.912 49.5071 28.176 49.2191 27.536C48.9631 26.864 48.5471 26.352 47.9711 26C47.4271 25.648 46.7071 25.472 45.8111 25.472C45.1711 25.472 44.5311 25.568 43.8911 25.76C43.2511 25.92 42.7231 26.208 42.3071 26.624C43.2031 26.944 43.8911 27.44 44.3711 28.112C44.8831 28.752 45.1391 29.488 45.1391 30.32C45.1391 31.408 44.7551 32.272 43.9871 32.912C43.2511 33.552 42.3711 33.872 41.3471 33.872C40.1951 33.872 39.3151 33.52 38.7071 32.816C38.1311 32.08 37.8431 31.2 37.8431 30.176C37.8431 29.248 38.0671 28.48 38.5151 27.872C38.9951 27.264 39.6511 26.688 40.4831 26.144C41.3791 25.632 42.4511 25.232 43.6991 24.944C44.9791 24.656 46.3551 24.512 47.8271 24.512C49.2991 24.512 50.6271 24.672 51.8111 24.992C52.9951 25.28 53.9871 25.824 54.7871 26.624C55.5231 27.36 56.0031 28.272 56.2271 29.36C56.4511 30.416 56.5631 31.76 56.5631 33.392V46.448C56.5631 47.248 56.6431 47.808 56.8031 48.128C56.9631 48.416 57.2351 48.56 57.6191 48.56C57.9071 48.56 58.1791 48.48 58.4351 48.32C58.7231 48.16 59.0271 47.968 59.3471 47.744L59.8271 48.56C59.1551 49.136 58.3711 49.584 57.4751 49.904C56.6111 50.192 55.6351 50.336 54.5471 50.336C53.3631 50.336 52.4191 50.176 51.7151 49.856C51.0111 49.504 50.4991 49.04 50.1791 48.464C49.8911 47.888 49.7471 47.216 49.7471 46.448C48.9791 47.664 48.0511 48.624 46.9631 49.328C45.8751 50 44.5471 50.336 42.9791 50.336ZM46.3871 47.264C47.0271 47.264 47.6031 47.12 48.1151 46.832C48.6591 46.512 49.1711 46 49.6511 45.296V35.456C49.3631 35.936 48.9631 36.368 48.4511 36.752C47.9391 37.136 47.3951 37.536 46.8191 37.952C46.2431 38.336 45.6831 38.768 45.1391 39.248C44.6271 39.728 44.2111 40.32 43.8911 41.024C43.5711 41.728 43.4111 42.576 43.4111 43.568C43.4111 44.816 43.6831 45.744 44.2271 46.352C44.7711 46.96 45.4911 47.264 46.3871 47.264ZM77.6629 24.512C80.1589 24.512 82.2229 25.536 83.8549 27.584C85.5189 29.6 86.3509 32.72 86.3509 36.944C86.3509 40.272 85.8389 42.944 84.8149 44.96C83.8229 46.976 82.4949 48.432 80.8309 49.328C79.1669 50.224 77.3429 50.672 75.3589 50.672C74.0469 50.672 72.8309 50.448 71.7109 50C70.5909 49.552 69.6309 48.816 68.8309 47.792L69.5029 47.552C70.0789 48.256 70.7509 48.784 71.5189 49.136C72.3189 49.488 73.1029 49.664 73.8709 49.664C75.6309 49.664 76.9429 48.672 77.8069 46.688C78.6709 44.704 79.1029 41.68 79.1029 37.616C79.1029 34.864 78.9269 32.688 78.5749 31.088C78.2549 29.456 77.7749 28.304 77.1349 27.632C76.4949 26.928 75.7269 26.576 74.8309 26.576C73.7109 26.576 72.6869 27.04 71.7589 27.968C70.8309 28.864 70.3029 30.128 70.1749 31.76L69.9349 30.08C70.5109 28.256 71.4869 26.88 72.8629 25.952C74.2389 24.992 75.8389 24.512 77.6629 24.512ZM70.3189 12.464V49.04C69.5189 48.912 68.7029 48.912 67.8709 49.04C67.0389 49.168 66.2709 49.392 65.5669 49.712C64.8629 50 64.2709 50.352 63.7909 50.768L63.0709 50.336C63.1989 49.888 63.2789 49.44 63.3109 48.992C63.3749 48.544 63.4069 48.096 63.4069 47.648V18.224C63.4069 16.784 63.1829 15.728 62.7349 15.056C62.3189 14.352 61.5189 14 60.3349 14V12.992C61.3589 13.088 62.3509 13.136 63.3109 13.136C64.6229 13.136 65.8709 13.088 67.0549 12.992C68.2389 12.864 69.3269 12.688 70.3189 12.464ZM105.836 24.512C106.86 24.512 107.692 24.736 108.332 25.184C108.972 25.6 109.436 26.144 109.724 26.816C110.044 27.488 110.204 28.192 110.204 28.928C110.204 30.112 109.852 31.088 109.148 31.856C108.476 32.592 107.58 32.96 106.46 32.96C105.34 32.96 104.46 32.688 103.82 32.144C103.212 31.568 102.908 30.816 102.908 29.888C102.908 28.992 103.1 28.256 103.484 27.68C103.9 27.072 104.412 26.56 105.02 26.144C104.572 26.016 104.124 26.032 103.676 26.192C103.068 26.288 102.492 26.544 101.948 26.96C101.404 27.344 100.94 27.84 100.556 28.448C100.172 29.024 99.8679 29.664 99.6439 30.368C99.4199 31.04 99.3079 31.696 99.3079 32.336V45.056C99.3079 46.592 99.6759 47.632 100.412 48.176C101.18 48.72 102.316 48.992 103.82 48.992V50C103.084 49.968 102.012 49.936 100.604 49.904C99.1959 49.84 97.7239 49.808 96.1879 49.808C94.9079 49.808 93.6119 49.84 92.2999 49.904C90.9879 49.936 89.9959 49.968 89.3239 50V48.992C90.4439 48.992 91.2279 48.752 91.6759 48.272C92.1559 47.792 92.3959 46.88 92.3959 45.536V30.416C92.3959 28.976 92.1719 27.92 91.7239 27.248C91.3079 26.544 90.5079 26.192 89.3239 26.192V25.184C90.3479 25.28 91.3399 25.328 92.2999 25.328C93.6439 25.328 94.8919 25.28 96.0439 25.184C97.2279 25.056 98.3159 24.88 99.3079 24.656V29.12C99.6919 28.256 100.204 27.472 100.844 26.768C101.484 26.064 102.22 25.52 103.052 25.136C103.884 24.72 104.812 24.512 105.836 24.512ZM117.97 12.8C119.314 12.8 120.37 13.136 121.138 13.808C121.938 14.448 122.338 15.344 122.338 16.496C122.338 17.648 121.938 18.56 121.138 19.232C120.37 19.872 119.314 20.192 117.97 20.192C116.626 20.192 115.554 19.872 114.754 19.232C113.986 18.56 113.602 17.648 113.602 16.496C113.602 15.344 113.986 14.448 114.754 13.808C115.554 13.136 116.626 12.8 117.97 12.8ZM121.714 24.656V45.536C121.714 46.88 121.938 47.792 122.386 48.272C122.866 48.752 123.666 48.992 124.786 48.992V50C124.21 49.968 123.314 49.936 122.098 49.904C120.882 49.84 119.65 49.808 118.402 49.808C117.154 49.808 115.89 49.84 114.61 49.904C113.33 49.936 112.37 49.968 111.73 50V48.992C112.85 48.992 113.634 48.752 114.082 48.272C114.562 47.792 114.802 46.88 114.802 45.536V30.416C114.802 28.976 114.578 27.92 114.13 27.248C113.714 26.544 112.914 26.192 111.73 26.192V25.184C112.754 25.28 113.746 25.328 114.706 25.328C116.05 25.328 117.298 25.28 118.45 25.184C119.634 25.056 120.722 24.88 121.714 24.656ZM139.255 24.512C142.071 24.512 144.279 25.344 145.879 27.008C147.479 28.672 148.279 31.392 148.279 35.168H132.487L132.391 34.256H142.231C142.263 32.688 142.167 31.248 141.943 29.936C141.719 28.592 141.367 27.52 140.887 26.72C140.407 25.92 139.767 25.52 138.967 25.52C137.847 25.52 136.887 26.224 136.087 27.632C135.319 29.04 134.855 31.376 134.695 34.64L134.839 34.928C134.807 35.312 134.775 35.712 134.743 36.128C134.743 36.544 134.743 36.976 134.743 37.424C134.743 39.632 135.047 41.424 135.655 42.8C136.295 44.176 137.095 45.184 138.055 45.824C139.015 46.432 139.991 46.736 140.983 46.736C141.655 46.736 142.343 46.64 143.047 46.448C143.783 46.224 144.519 45.84 145.255 45.296C145.991 44.72 146.679 43.92 147.319 42.896L148.183 43.184C147.799 44.4 147.191 45.584 146.359 46.736C145.527 47.888 144.471 48.832 143.191 49.568C141.911 50.304 140.375 50.672 138.583 50.672C136.407 50.672 134.487 50.208 132.823 49.28C131.159 48.352 129.847 46.944 128.887 45.056C127.959 43.168 127.495 40.768 127.495 37.856C127.495 34.88 127.991 32.4 128.983 30.416C130.007 28.432 131.399 26.96 133.159 26C134.951 25.008 136.983 24.512 139.255 24.512ZM160.85 12.416V45.536C160.85 46.88 161.074 47.792 161.522 48.272C162.002 48.752 162.802 48.992 163.922 48.992V50C163.314 49.968 162.402 49.936 161.186 49.904C159.97 49.84 158.738 49.808 157.49 49.808C156.242 49.808 154.978 49.84 153.698 49.904C152.45 49.936 151.506 49.968 150.866 50V48.992C151.986 48.992 152.77 48.752 153.218 48.272C153.698 47.792 153.938 46.88 153.938 45.536V18.176C153.938 16.736 153.714 15.68 153.266 15.008C152.85 14.304 152.05 13.952 150.866 13.952V12.944C151.89 13.04 152.882 13.088 153.842 13.088C155.154 13.088 156.402 13.04 157.586 12.944C158.77 12.816 159.858 12.64 160.85 12.416ZM198 50V49.04C199.024 48.976 199.792 48.848 200.304 48.656C200.816 48.464 201.152 48.08 201.312 47.504C201.504 46.928 201.6 46.064 201.6 44.912V21.104C201.6 19.92 201.504 19.056 201.312 18.512C201.152 17.936 200.8 17.552 200.256 17.36C199.744 17.136 198.992 17.008 198 16.976V16.016C198.864 16.048 199.984 16.08 201.36 16.112C202.768 16.144 204.16 16.16 205.536 16.16C207.008 16.16 208.384 16.144 209.664 16.112C210.976 16.08 212.032 16.048 212.832 16.016V16.976C211.808 17.008 211.024 17.136 210.48 17.36C209.968 17.552 209.632 17.936 209.472 18.512C209.312 19.056 209.232 19.92 209.232 21.104V44.912C209.232 46.064 209.312 46.928 209.472 47.504C209.664 48.08 210.016 48.464 210.528 48.656C211.04 48.848 211.808 48.976 212.832 49.04V50C212.032 49.936 210.976 49.904 209.664 49.904C208.384 49.872 207.008 49.856 205.536 49.856C204.16 49.856 202.768 49.872 201.36 49.904C199.984 49.904 198.864 49.936 198 50ZM177.648 50V49.04C178.672 48.976 179.44 48.848 179.952 48.656C180.464 48.464 180.8 48.08 180.96 47.504C181.152 46.928 181.248 46.064 181.248 44.912V21.104C181.248 19.92 181.152 19.056 180.96 18.512C180.8 17.936 180.448 17.552 179.904 17.36C179.392 17.136 178.64 17.008 177.648 16.976V16.016C178.48 16.048 179.552 16.08 180.864 16.112C182.208 16.144 183.664 16.16 185.232 16.16C186.576 16.16 187.904 16.144 189.216 16.112C190.528 16.08 191.616 16.048 192.48 16.016V16.976C191.456 17.008 190.672 17.136 190.128 17.36C189.616 17.552 189.28 17.936 189.12 18.512C188.96 19.056 188.88 19.92 188.88 21.104V44.912C188.88 46.064 188.96 46.928 189.12 47.504C189.312 48.08 189.664 48.464 190.176 48.656C190.688 48.848 191.456 48.976 192.48 49.04V50C191.616 49.936 190.528 49.904 189.216 49.904C187.904 49.872 186.576 49.856 185.232 49.856C183.664 49.856 182.208 49.872 180.864 49.904C179.552 49.904 178.48 49.936 177.648 50ZM185.76 33.392V32.432H204.72V33.392H185.76ZM227.052 24.512C229.868 24.512 232.076 25.344 233.676 27.008C235.276 28.672 236.076 31.392 236.076 35.168H220.284L220.188 34.256H230.028C230.06 32.688 229.964 31.248 229.74 29.936C229.516 28.592 229.164 27.52 228.684 26.72C228.204 25.92 227.564 25.52 226.764 25.52C225.644 25.52 224.684 26.224 223.884 27.632C223.116 29.04 222.652 31.376 222.492 34.64L222.636 34.928C222.604 35.312 222.572 35.712 222.54 36.128C222.54 36.544 222.54 36.976 222.54 37.424C222.54 39.632 222.844 41.424 223.452 42.8C224.092 44.176 224.892 45.184 225.852 45.824C226.812 46.432 227.788 46.736 228.78 46.736C229.452 46.736 230.14 46.64 230.844 46.448C231.58 46.224 232.316 45.84 233.052 45.296C233.788 44.72 234.476 43.92 235.116 42.896L235.98 43.184C235.596 44.4 234.988 45.584 234.156 46.736C233.324 47.888 232.268 48.832 230.988 49.568C229.708 50.304 228.172 50.672 226.38 50.672C224.204 50.672 222.284 50.208 220.62 49.28C218.956 48.352 217.644 46.944 216.684 45.056C215.756 43.168 215.292 40.768 215.292 37.856C215.292 34.88 215.788 32.4 216.78 30.416C217.804 28.432 219.196 26.96 220.956 26C222.748 25.008 224.78 24.512 227.052 24.512ZM256.43 24.512C257.774 24.512 258.862 24.688 259.694 25.04C260.558 25.36 261.23 25.808 261.71 26.384C262.222 26.992 262.59 27.776 262.814 28.736C263.07 29.696 263.198 30.992 263.198 32.624V45.536C263.198 46.88 263.422 47.792 263.87 48.272C264.35 48.752 265.15 48.992 266.27 48.992V50C265.662 49.968 264.75 49.936 263.534 49.904C262.318 49.84 261.118 49.808 259.934 49.808C258.718 49.808 257.518 49.84 256.334 49.904C255.182 49.936 254.302 49.968 253.694 50V48.992C254.654 48.992 255.326 48.752 255.71 48.272C256.094 47.792 256.286 46.88 256.286 45.536V30.608C256.286 29.808 256.206 29.12 256.046 28.544C255.886 27.936 255.598 27.472 255.182 27.152C254.766 26.8 254.142 26.624 253.31 26.624C252.446 26.624 251.646 26.864 250.91 27.344C250.206 27.824 249.63 28.496 249.182 29.36C248.766 30.192 248.558 31.136 248.558 32.192V45.536C248.558 46.88 248.75 47.792 249.134 48.272C249.55 48.752 250.222 48.992 251.15 48.992V50C250.574 49.968 249.726 49.936 248.606 49.904C247.518 49.84 246.382 49.808 245.198 49.808C243.982 49.808 242.734 49.84 241.454 49.904C240.174 49.936 239.214 49.968 238.574 50V48.992C239.694 48.992 240.478 48.752 240.926 48.272C241.406 47.792 241.646 46.88 241.646 45.536V30.416C241.646 28.976 241.422 27.92 240.974 27.248C240.558 26.544 239.758 26.192 238.574 26.192V25.184C239.598 25.28 240.59 25.328 241.55 25.328C242.894 25.328 244.142 25.28 245.294 25.184C246.478 25.056 247.566 24.88 248.558 24.656V28.976C249.358 27.344 250.446 26.192 251.822 25.52C253.198 24.848 254.734 24.512 256.43 24.512ZM284.57 24.512C285.594 24.512 286.426 24.736 287.066 25.184C287.706 25.6 288.17 26.144 288.458 26.816C288.778 27.488 288.938 28.192 288.938 28.928C288.938 30.112 288.586 31.088 287.882 31.856C287.21 32.592 286.314 32.96 285.194 32.96C284.074 32.96 283.194 32.688 282.554 32.144C281.946 31.568 281.642 30.816 281.642 29.888C281.642 28.992 281.834 28.256 282.218 27.68C282.634 27.072 283.146 26.56 283.754 26.144C283.306 26.016 282.858 26.032 282.41 26.192C281.802 26.288 281.226 26.544 280.682 26.96C280.138 27.344 279.674 27.84 279.29 28.448C278.906 29.024 278.602 29.664 278.378 30.368C278.154 31.04 278.042 31.696 278.042 32.336V45.056C278.042 46.592 278.41 47.632 279.146 48.176C279.914 48.72 281.05 48.992 282.554 48.992V50C281.818 49.968 280.746 49.936 279.338 49.904C277.93 49.84 276.458 49.808 274.922 49.808C273.642 49.808 272.346 49.84 271.034 49.904C269.722 49.936 268.73 49.968 268.058 50V48.992C269.178 48.992 269.962 48.752 270.41 48.272C270.89 47.792 271.13 46.88 271.13 45.536V30.416C271.13 28.976 270.906 27.92 270.458 27.248C270.042 26.544 269.242 26.192 268.058 26.192V25.184C269.082 25.28 270.074 25.328 271.034 25.328C272.378 25.328 273.626 25.28 274.778 25.184C275.962 25.056 277.05 24.88 278.042 24.656V29.12C278.426 28.256 278.938 27.472 279.578 26.768C280.218 26.064 280.954 25.52 281.786 25.136C282.618 24.72 283.546 24.512 284.57 24.512ZM296.705 12.8C298.049 12.8 299.105 13.136 299.873 13.808C300.673 14.448 301.073 15.344 301.073 16.496C301.073 17.648 300.673 18.56 299.873 19.232C299.105 19.872 298.049 20.192 296.705 20.192C295.361 20.192 294.289 19.872 293.489 19.232C292.721 18.56 292.337 17.648 292.337 16.496C292.337 15.344 292.721 14.448 293.489 13.808C294.289 13.136 295.361 12.8 296.705 12.8ZM300.449 24.656V45.536C300.449 46.88 300.673 47.792 301.121 48.272C301.601 48.752 302.401 48.992 303.521 48.992V50C302.945 49.968 302.049 49.936 300.833 49.904C299.617 49.84 298.385 49.808 297.137 49.808C295.889 49.808 294.625 49.84 293.345 49.904C292.065 49.936 291.105 49.968 290.465 50V48.992C291.585 48.992 292.369 48.752 292.817 48.272C293.297 47.792 293.537 46.88 293.537 45.536V30.416C293.537 28.976 293.313 27.92 292.865 27.248C292.449 26.544 291.649 26.192 290.465 26.192V25.184C291.489 25.28 292.481 25.328 293.441 25.328C294.785 25.328 296.033 25.28 297.185 25.184C298.369 25.056 299.457 24.88 300.449 24.656ZM315.349 12.416V45.536C315.349 46.88 315.557 47.792 315.973 48.272C316.421 48.752 317.173 48.992 318.229 48.992V50C317.621 49.968 316.725 49.936 315.541 49.904C314.389 49.84 313.205 49.808 311.989 49.808C310.741 49.808 309.477 49.84 308.197 49.904C306.949 49.936 306.005 49.968 305.365 50V48.992C306.485 48.992 307.269 48.752 307.717 48.272C308.197 47.792 308.437 46.88 308.437 45.536V18.176C308.437 16.736 308.213 15.68 307.765 15.008C307.349 14.304 306.549 13.952 305.365 13.952V12.944C306.389 13.04 307.381 13.088 308.341 13.088C309.653 13.088 310.901 13.04 312.085 12.944C313.269 12.816 314.357 12.64 315.349 12.416ZM330.997 25.184V26.144C330.005 26.336 329.013 26.752 328.021 27.392C327.029 28.032 326.021 28.848 324.997 29.84L321.301 33.68L321.781 32.768L329.989 46.496C330.341 47.072 330.709 47.584 331.093 48.032C331.477 48.48 331.941 48.8 332.485 48.992V50C332.005 49.968 331.285 49.936 330.325 49.904C329.365 49.84 328.405 49.808 327.445 49.808C326.261 49.808 325.077 49.84 323.893 49.904C322.709 49.936 321.829 49.968 321.253 50V48.992C321.893 48.992 322.325 48.848 322.549 48.56C322.773 48.24 322.741 47.84 322.453 47.36L317.701 38.768C317.317 38.16 316.933 37.776 316.549 37.616C316.197 37.424 315.717 37.312 315.109 37.28V36.368C315.781 36.304 316.357 36.192 316.837 36.032C317.349 35.872 317.813 35.568 318.229 35.12L321.877 31.568C322.965 30.544 323.509 29.632 323.509 28.832C323.509 28.032 323.157 27.392 322.453 26.912C321.781 26.432 320.885 26.176 319.765 26.144V25.184C320.661 25.216 321.637 25.248 322.693 25.28C323.749 25.312 324.645 25.328 325.381 25.328C326.021 25.328 326.693 25.328 327.397 25.328C328.133 25.296 328.821 25.28 329.461 25.28C330.101 25.248 330.613 25.216 330.997 25.184Z" fill="#F5F5F5"/>
<mask id="mask0_524_14" style="mask-type:alpha" maskUnits="userSpaceOnUse" x="333" y="0" width="60" height="60">
<rect x="333" width="60" height="60" fill="#D9D9D9"/>
</mask>
<g mask="url(#mask0_524_14)">
<path d="M368 50V45H375.5C376.208 45 376.802 44.76 377.28 44.28C377.76 43.8017 378 43.2083 378 42.5V37.5C378 35.9167 378.458 34.4792 379.375 33.1875C380.292 31.8958 381.5 30.9792 383 30.4375V29.5625C381.5 29.0208 380.292 28.1042 379.375 26.8125C378.458 25.5208 378 24.0833 378 22.5V17.5C378 16.7917 377.76 16.1975 377.28 15.7175C376.802 15.2392 376.208 15 375.5 15H368V10H375.5C377.583 10 379.354 10.7292 380.812 12.1875C382.271 13.6458 383 15.4167 383 17.5V22.5C383 23.2083 383.24 23.8017 383.72 24.28C384.198 24.76 384.792 25 385.5 25H388V35H385.5C384.792 35 384.198 35.2392 383.72 35.7175C383.24 36.1975 383 36.7917 383 37.5V42.5C383 44.5833 382.271 46.3542 380.812 47.8125C379.354 49.2708 377.583 50 375.5 50H368ZM350.5 50C348.417 50 346.646 49.2708 345.187 47.8125C343.729 46.3542 343 44.5833 343 42.5V37.5C343 36.7917 342.761 36.1975 342.282 35.7175C341.802 35.2392 341.208 35 340.5 35H338V25H340.5C341.208 25 341.802 24.76 342.282 24.28C342.761 23.8017 343 23.2083 343 22.5V17.5C343 15.4167 343.729 13.6458 345.187 12.1875C346.646 10.7292 348.417 10 350.5 10H358V15H350.5C349.792 15 349.198 15.2392 348.718 15.7175C348.239 16.1975 348 16.7917 348 17.5V22.5C348 24.0833 347.542 25.5208 346.625 26.8125C345.708 28.1042 344.5 29.0208 343 29.5625V30.4375C344.5 30.9792 345.708 31.8958 346.625 33.1875C347.542 34.4792 348 35.9167 348 37.5V42.5C348 43.2083 348.239 43.8017 348.718 44.28C349.198 44.76 349.792 45 350.5 45H358V50H350.5Z" fill="url(#paint0_linear_524_14)"/>
</g>
<defs>
<linearGradient id="paint0_linear_524_14" x1="363" y1="10" x2="363" y2="50" gradientUnits="userSpaceOnUse">
<stop stop-color="#B629F8"/>
<stop offset="1" stop-color="#800ADD"/>
</linearGradient>
</defs>
</svg>
