<svg width="402" height="40" viewBox="0 0 402 40" fill="none" xmlns="http://www.w3.org/2000/svg">
<path d="M14.624 39.816C11.472 39.816 8.816 39.152 6.656 37.824C4.496 36.48 2.856 34.512 1.736 31.92C0.632 29.312 0.08 26.104 0.08 22.296C0.08 19.464 0.472 16.968 1.256 14.808C2.056 12.632 3.16 10.816 4.568 9.36C5.976 7.888 7.616 6.776 9.488 6.024C11.36 5.272 13.376 4.896 15.536 4.896C17.968 4.896 20.016 5.272 21.68 6.024C23.344 6.776 24.824 7.768 26.12 9L21.992 13.272C20.984 12.376 20.016 11.712 19.088 11.28C18.16 10.848 17.104 10.632 15.92 10.632C14.8 10.632 13.768 10.856 12.824 11.304C11.896 11.736 11.08 12.424 10.376 13.368C9.688 14.296 9.152 15.504 8.768 16.992C8.384 18.464 8.192 20.248 8.192 22.344C8.192 25.24 8.424 27.544 8.888 29.256C9.368 30.968 10.088 32.2 11.048 32.952C12.008 33.688 13.224 34.056 14.696 34.056C15.48 34.056 16.216 33.968 16.904 33.792C17.592 33.6 18.232 33.352 18.824 33.048V25.44H14.648L13.88 19.92H26.264V36.456C24.6 37.48 22.808 38.296 20.888 38.904C18.984 39.512 16.896 39.816 14.624 39.816ZM52.5973 31.656C52.5973 32.616 52.7253 33.312 52.9813 33.744C53.2533 34.176 53.6853 34.504 54.2773 34.728L52.7173 39.72C51.2133 39.576 49.9413 39.248 48.9013 38.736C47.8773 38.208 47.0693 37.416 46.4773 36.36C45.5013 37.528 44.2533 38.4 42.7333 38.976C41.2133 39.536 39.6613 39.816 38.0773 39.816C35.4533 39.816 33.3573 39.072 31.7893 37.584C30.2373 36.08 29.4613 34.152 29.4613 31.8C29.4613 29.032 30.5413 26.896 32.7013 25.392C34.8773 23.888 37.9333 23.136 41.8693 23.136H45.3013V22.176C45.3013 20.848 44.8693 19.864 44.0053 19.224C43.1573 18.584 41.9093 18.264 40.2613 18.264C39.4453 18.264 38.3973 18.384 37.1173 18.624C35.8373 18.848 34.5573 19.176 33.2773 19.608L31.5253 14.568C33.1733 13.944 34.8853 13.472 36.6613 13.152C38.4533 12.832 40.0533 12.672 41.4613 12.672C45.2533 12.672 48.0533 13.448 49.8613 15C51.6853 16.536 52.5973 18.76 52.5973 21.672V31.656ZM40.6933 34.392C41.5093 34.392 42.3653 34.152 43.2613 33.672C44.1573 33.176 44.8373 32.48 45.3013 31.584V27.456H43.4293C41.3173 27.456 39.7653 27.784 38.7733 28.44C37.7813 29.08 37.2853 30.024 37.2853 31.272C37.2853 32.248 37.5813 33.016 38.1733 33.576C38.7813 34.12 39.6213 34.392 40.6933 34.392ZM67.5065 16.128C68.3065 15.072 69.2665 14.232 70.3865 13.608C71.5225 12.984 72.7385 12.672 74.0345 12.672C76.2265 12.672 78.0105 13.224 79.3865 14.328C80.7785 15.432 81.8025 16.992 82.4585 19.008C83.1145 21.024 83.4425 23.416 83.4425 26.184C83.4425 28.808 83.0505 31.152 82.2665 33.216C81.4985 35.264 80.3545 36.88 78.8345 38.064C77.3145 39.232 75.4505 39.816 73.2425 39.816C70.5705 39.816 68.4665 38.776 66.9305 36.696L66.6425 39H59.9225V3.384L67.5065 2.592V16.128ZM71.2505 34.296C72.5945 34.296 73.6585 33.68 74.4425 32.448C75.2265 31.2 75.6185 29.144 75.6185 26.28C75.6185 24.168 75.4505 22.536 75.1145 21.384C74.7945 20.216 74.3305 19.408 73.7225 18.96C73.1305 18.496 72.4345 18.264 71.6345 18.264C70.7865 18.264 70.0265 18.528 69.3545 19.056C68.6825 19.584 68.0665 20.304 67.5065 21.216V31.968C67.9865 32.72 68.5225 33.296 69.1145 33.696C69.7065 34.096 70.4185 34.296 71.2505 34.296ZM88.9438 39V33.912H92.3038V18.552H88.9438V13.512H98.0878L99.4798 19.248C100.392 17.056 101.552 15.424 102.96 14.352C104.384 13.28 106.12 12.744 108.168 12.744C109.032 12.744 109.8 12.816 110.472 12.96C111.144 13.088 111.776 13.272 112.368 13.512L110.064 19.776C109.6 19.648 109.136 19.552 108.672 19.488C108.208 19.424 107.696 19.392 107.136 19.392C105.472 19.392 104.008 20.072 102.744 21.432C101.496 22.792 100.544 24.52 99.8878 26.616V33.912H104.928V39H88.9438ZM106.2 24.168V16.728L107.328 13.512H112.368L110.952 24.168H106.2ZM133.061 13.512V33.816H139.541V39H118.253V33.816H125.477V18.696H118.493V13.512H133.061ZM128.477 0.167999C129.789 0.167999 130.861 0.575999 131.693 1.392C132.525 2.208 132.941 3.224 132.941 4.44C132.941 5.656 132.525 6.68 131.693 7.512C130.861 8.328 129.789 8.736 128.477 8.736C127.149 8.736 126.061 8.328 125.213 7.512C124.381 6.68 123.965 5.656 123.965 4.44C123.965 3.224 124.381 2.208 125.213 1.392C126.061 0.575999 127.149 0.167999 128.477 0.167999ZM152.842 28.464C153.018 29.856 153.378 30.984 153.922 31.848C154.482 32.696 155.194 33.32 156.058 33.72C156.922 34.104 157.89 34.296 158.962 34.296C160.13 34.296 161.258 34.104 162.346 33.72C163.434 33.336 164.482 32.824 165.49 32.184L168.538 36.312C167.338 37.336 165.882 38.176 164.17 38.832C162.474 39.488 160.538 39.816 158.362 39.816C155.45 39.816 153.01 39.24 151.042 38.088C149.074 36.92 147.594 35.32 146.602 33.288C145.61 31.256 145.114 28.92 145.114 26.28C145.114 23.768 145.594 21.488 146.554 19.44C147.514 17.376 148.914 15.736 150.754 14.52C152.61 13.288 154.874 12.672 157.546 12.672C159.978 12.672 162.082 13.192 163.858 14.232C165.65 15.272 167.034 16.768 168.01 18.72C169.002 20.672 169.498 23.016 169.498 25.752C169.498 26.184 169.482 26.648 169.45 27.144C169.434 27.64 169.402 28.08 169.354 28.464H152.842ZM157.546 17.76C156.186 17.76 155.09 18.248 154.258 19.224C153.426 20.2 152.922 21.76 152.746 23.904H162.106C162.09 22.048 161.73 20.56 161.026 19.44C160.322 18.32 159.162 17.76 157.546 17.76ZM188.344 3.384V30.984C188.344 32.008 188.632 32.744 189.208 33.192C189.8 33.624 190.608 33.84 191.632 33.84C192.288 33.84 192.92 33.768 193.528 33.624C194.136 33.464 194.704 33.28 195.232 33.072L197.056 38.136C196.192 38.584 195.152 38.976 193.936 39.312C192.72 39.648 191.304 39.816 189.688 39.816C186.616 39.816 184.36 38.936 182.92 37.176C181.48 35.4 180.76 33.024 180.76 30.048V8.568H173.248V3.384H188.344ZM247.682 39V24.984H239.618V39H231.746V5.736H239.618V18.504H247.682V5.736H255.554V39H247.682ZM267.967 28.464C268.143 29.856 268.503 30.984 269.047 31.848C269.607 32.696 270.319 33.32 271.183 33.72C272.047 34.104 273.015 34.296 274.087 34.296C275.255 34.296 276.383 34.104 277.471 33.72C278.559 33.336 279.607 32.824 280.615 32.184L283.663 36.312C282.463 37.336 281.007 38.176 279.295 38.832C277.599 39.488 275.663 39.816 273.487 39.816C270.575 39.816 268.135 39.24 266.167 38.088C264.199 36.92 262.719 35.32 261.727 33.288C260.735 31.256 260.239 28.92 260.239 26.28C260.239 23.768 260.719 21.488 261.679 19.44C262.639 17.376 264.039 15.736 265.879 14.52C267.735 13.288 269.999 12.672 272.671 12.672C275.103 12.672 277.207 13.192 278.983 14.232C280.775 15.272 282.159 16.768 283.135 18.72C284.127 20.672 284.623 23.016 284.623 25.752C284.623 26.184 284.607 26.648 284.575 27.144C284.559 27.64 284.527 28.08 284.479 28.464H267.967ZM272.671 17.76C271.311 17.76 270.215 18.248 269.383 19.224C268.551 20.2 268.047 21.76 267.871 23.904H277.231C277.215 22.048 276.855 20.56 276.151 19.44C275.447 18.32 274.287 17.76 272.671 17.76ZM290.173 39V13.512H296.797L297.325 16.464C298.461 15.184 299.661 14.232 300.924 13.608C302.189 12.984 303.629 12.672 305.245 12.672C307.421 12.672 309.133 13.336 310.381 14.664C311.629 15.992 312.253 17.864 312.253 20.28V39H304.669V22.464C304.669 21.424 304.597 20.6 304.453 19.992C304.309 19.368 304.053 18.928 303.685 18.672C303.333 18.4 302.845 18.264 302.221 18.264C301.693 18.264 301.173 18.384 300.661 18.624C300.165 18.848 299.677 19.176 299.197 19.608C298.717 20.04 298.237 20.56 297.757 21.168V39H290.173ZM319.194 39V33.912H322.554V18.552H319.194V13.512H328.338L329.73 19.248C330.642 17.056 331.802 15.424 333.21 14.352C334.634 13.28 336.37 12.744 338.418 12.744C339.282 12.744 340.05 12.816 340.722 12.96C341.394 13.088 342.026 13.272 342.618 13.512L340.314 19.776C339.85 19.648 339.386 19.552 338.922 19.488C338.458 19.424 337.946 19.392 337.386 19.392C335.722 19.392 334.258 20.072 332.994 21.432C331.746 22.792 330.794 24.52 330.138 26.616V33.912H335.178V39H319.194ZM336.45 24.168V16.728L337.578 13.512H342.618L341.202 24.168H336.45ZM363.311 13.512V33.816H369.791V39H348.503V33.816H355.727V18.696H348.743V13.512H363.311ZM358.727 0.167999C360.039 0.167999 361.111 0.575999 361.943 1.392C362.775 2.208 363.191 3.224 363.191 4.44C363.191 5.656 362.775 6.68 361.943 7.512C361.111 8.328 360.039 8.736 358.727 8.736C357.399 8.736 356.311 8.328 355.463 7.512C354.631 6.68 354.215 5.656 354.215 4.44C354.215 3.224 354.631 2.208 355.463 1.392C356.311 0.575999 357.399 0.167999 358.727 0.167999ZM400.708 13.512L392.332 24.792L401.404 39H392.764L384.388 25.032L392.764 13.512H400.708ZM384.1 2.592V39H376.516V3.384L384.1 2.592Z" fill="#9C6137"/>
</svg>
